<svg width="196" height="68" viewBox="0 0 196 68" fill="none" xmlns="http://www.w3.org/2000/svg">
<path d="M35.9211 5.64401L35.6672 3.93848H33.9429H12.8301H11.077L10.8473 5.6764L3.42838 61.8038L3.12938 64.0659H5.41113H20.5264H22.3619L22.519 62.2371L23.2286 53.9775H24.7671L25.3611 62.2099L25.4951 64.0659H27.356H42.2979H42.7939H44.6176H44.7939H61.6772C64.6443 64.0659 67.1448 63.9815 69.1642 63.8072C71.1479 63.636 72.7984 63.3684 73.9925 62.9461C76.3914 62.0977 78.1764 60.478 79.2584 58.1733C80.3326 55.9332 80.7686 52.7595 80.7686 48.8921V43.6919C80.7686 39.8969 80.1581 36.7071 78.6202 34.4557C77.8915 33.3784 76.9073 32.4945 75.7185 31.7744C76.5214 31.279 77.2032 30.7025 77.7343 30.0289C79.2244 28.1677 79.7285 25.2754 79.7285 21.9204C79.7285 16.9635 79.0031 12.9524 77.2084 10.2717C75.5119 7.71542 73.2211 5.95801 70.3685 5.09882C67.7245 4.29573 64.01 3.93848 59.3545 3.93848H44.7939H42.7939V5.93848V51.8149L35.9211 5.64401ZM61.8652 18.0287L61.8704 18.0401L61.8756 18.0513C61.9949 18.307 62.1733 19.1322 62.1733 20.8804C62.1733 22.5149 62.1247 23.7803 62.0354 24.6998C61.9727 25.3447 61.8987 25.7034 61.8581 25.8706C61.7608 25.903 61.6091 25.9383 61.3892 25.9615V17.6665C61.452 17.6759 61.5074 17.6853 61.5558 17.6946C61.619 17.7066 61.6623 17.7169 61.6888 17.7238C61.7221 17.7638 61.7867 17.8548 61.8652 18.0287ZM61.9967 49.5944C61.9422 49.8629 61.8883 50.0144 61.8584 50.0871C61.7919 50.1175 61.6595 50.1701 61.4302 50.2269C61.4167 50.2303 61.403 50.2336 61.3892 50.2369V38.9402C61.4646 38.9537 61.5357 38.9677 61.6026 38.9821C61.7465 39.0131 61.8536 39.0426 61.9309 39.067C61.9562 39.1592 61.9846 39.2825 62.0125 39.4424C62.1114 40.0089 62.1733 40.8448 62.1733 41.9932V47.228C62.1733 48.2923 62.1041 49.0664 61.9967 49.5944ZM61.8623 38.8672C61.8622 38.867 61.8635 38.8692 61.8658 38.8743C61.8634 38.8699 61.8623 38.8674 61.8623 38.8672ZM91.6226 63.6342L91.6333 63.6387L91.6441 63.6431C94.3205 64.7239 97.2845 65.2446 100.505 65.2446C103.888 65.2446 106.944 64.689 109.626 63.5173C112.305 62.347 114.485 60.6394 116.099 58.3813C117.705 56.1683 118.666 53.7063 118.96 51.0236C119.252 48.5372 119.389 44.4376 119.389 38.8037V29.2007C119.389 23.4255 119.252 19.272 118.958 16.8286C118.638 14.1547 117.631 11.6915 115.979 9.46241C114.293 7.1869 112.062 5.50048 109.343 4.40037C106.684 3.29234 103.727 2.75977 100.505 2.75977C97.1223 2.75977 94.0663 3.31537 91.3844 4.4871C88.7055 5.65747 86.5174 7.3637 84.8812 9.61679L84.8766 9.62314L84.872 9.62952C83.2904 11.8439 82.3341 14.3124 82.0171 17.0066L82.0161 17.0151L82.0152 17.0237C81.748 19.4771 81.6221 23.5611 81.6221 29.2007V38.8037C81.6221 44.5789 81.7591 48.7324 82.0523 51.1758C82.3732 53.8497 83.3793 56.3129 85.0314 58.542C86.7141 60.8123 88.9284 62.5095 91.6226 63.6342ZM100.533 16.2599C100.545 16.308 100.559 16.3723 100.575 16.4552C100.616 16.6705 100.655 16.9596 100.689 17.3334C100.756 18.0822 100.793 19.0852 100.793 20.3604V46.1533C100.793 47.7837 100.759 49.0842 100.694 50.0685C100.633 50.984 100.552 51.5054 100.493 51.7454C100.486 51.7455 100.478 51.7456 100.471 51.7456C100.463 51.7456 100.455 51.7455 100.448 51.7454C100.437 51.6827 100.425 51.6089 100.413 51.5231C100.374 51.2409 100.339 50.8683 100.309 50.3953C100.249 49.4494 100.217 48.1789 100.217 46.5693V20.3604C100.217 18.9492 100.266 17.8783 100.352 17.1188C100.395 16.7387 100.443 16.4746 100.487 16.3044C100.491 16.2891 100.494 16.2753 100.498 16.2628C100.507 16.2617 100.519 16.2606 100.533 16.2599ZM157.198 3.93848H156.043H141.448H139.448V5.93848V47.2974C139.448 48.6692 139.414 49.7563 139.35 50.5741C139.345 50.6429 139.339 50.7088 139.334 50.7718C139.282 50.0736 139.253 49.1626 139.253 48.0254V5.93848V3.93848H137.253H122.658H120.658V5.93848V39.1504C120.658 45.459 120.771 49.7384 121.018 51.8619L121.019 51.8645C121.293 54.1983 122.185 56.3851 123.631 58.4095C125.165 60.557 127.411 62.202 130.219 63.4163C133.08 64.6534 136.317 65.2446 139.888 65.2446C143.114 65.2446 146.01 64.7528 148.527 63.7041L148.536 63.7001C151.076 62.6267 153.17 61.0429 154.761 58.939L154.768 58.9292C156.266 56.9237 157.259 54.8608 157.602 52.7484L157.602 52.7442C157.907 50.8372 158.043 47.701 158.043 43.4492V19.1709H159.198H165.831V62.0659V64.0659H167.831H182.426H184.426V62.0659V19.1709H191.093H193.093V17.1709V5.93848V3.93848H191.093H159.198H158.043H157.198ZM23.3926 40.0278C23.4717 39.1537 23.5639 38.2111 23.6692 37.1999C23.7702 38.17 23.8713 39.1127 23.9724 40.0278H23.3926Z" fill="white" stroke="black" stroke-width="4"/>
</svg>
