<svg width="420" height="67" viewBox="0 0 420 67" fill="none" xmlns="http://www.w3.org/2000/svg">
<mask id="path-1-outside-1_1193_58" maskUnits="userSpaceOnUse" x="0.562988" y="0.199219" width="419" height="67" fill="black">
<rect fill="white" x="0.562988" y="0.199219" width="419" height="67"/>
<path d="M19.1582 5.37793V61.5054H4.56299V5.37793H19.1582Z"/>
<path d="M57.605 5.37793V61.5054H44.8125L37.2202 35.9897V61.5054H25.0171V5.37793H37.2202L45.4019 30.6509V5.37793H57.605Z"/>
<path d="M92.897 5.37793V16.6104H84.23V61.5054H69.6348V16.6104H61.0024V5.37793H92.897Z"/>
<path d="M96.2251 5.37793H106.556C113.444 5.37793 118.101 5.64372 120.527 6.17529C122.977 6.70687 124.965 8.07048 126.49 10.2661C128.039 12.4386 128.813 15.917 128.813 20.7012C128.813 25.0693 128.27 28.0046 127.184 29.5068C126.097 31.0091 123.959 31.9105 120.77 32.2109C123.659 32.9274 125.6 33.8866 126.594 35.0884C127.588 36.2902 128.201 37.3996 128.432 38.4165C128.686 39.4103 128.813 42.1722 128.813 46.7021V61.5054H115.258V42.854C115.258 39.8494 115.015 37.9889 114.53 37.2725C114.068 36.556 112.831 36.1978 110.82 36.1978V61.5054H96.2251V5.37793ZM110.82 14.981V27.4614C112.461 27.4614 113.605 27.2419 114.252 26.8027C114.923 26.3405 115.258 24.8729 115.258 22.3999V19.3145C115.258 17.5348 114.934 16.3677 114.287 15.813C113.663 15.2583 112.507 14.981 110.82 14.981Z"/>
<path d="M167.849 38.2432C167.849 43.8825 167.71 47.8809 167.433 50.2383C167.179 52.5726 166.347 54.7104 164.937 56.6519C163.55 58.5933 161.667 60.084 159.286 61.124C156.906 62.1641 154.132 62.6841 150.966 62.6841C147.961 62.6841 145.257 62.1987 142.854 61.228C140.473 60.2342 138.555 58.755 137.099 56.7905C135.643 54.826 134.776 52.6882 134.499 50.377C134.221 48.0658 134.083 44.0212 134.083 38.2432V28.6401C134.083 23.0008 134.21 19.014 134.464 16.6797C134.741 14.3223 135.573 12.1729 136.96 10.2314C138.37 8.29004 140.265 6.79932 142.646 5.75928C145.026 4.71924 147.799 4.19922 150.966 4.19922C153.97 4.19922 156.663 4.69613 159.043 5.68994C161.447 6.66064 163.377 8.12826 164.833 10.0928C166.289 12.0573 167.156 14.1951 167.433 16.5063C167.71 18.8175 167.849 22.8621 167.849 28.6401V38.2432ZM153.254 19.7998C153.254 17.1882 153.104 15.5241 152.803 14.8076C152.526 14.068 151.937 13.6982 151.035 13.6982C150.272 13.6982 149.683 13.9987 149.267 14.5996C148.874 15.1774 148.678 16.9108 148.678 19.7998V46.0088C148.678 49.2676 148.805 51.2783 149.059 52.041C149.336 52.8037 149.96 53.1851 150.931 53.1851C151.925 53.1851 152.561 52.7459 152.838 51.8677C153.115 50.9894 153.254 48.8978 153.254 45.5928V19.7998Z"/>
<path d="M173.327 5.37793H184.247C191.296 5.37793 196.057 5.7015 198.53 6.34863C201.026 6.99577 202.922 8.05892 204.216 9.53809C205.51 11.0173 206.319 12.6698 206.643 14.4956C206.966 16.2983 207.128 19.8576 207.128 25.1733V44.8301C207.128 49.8685 206.885 53.2428 206.4 54.9531C205.938 56.6403 205.117 57.9692 203.938 58.9399C202.76 59.8875 201.304 60.5578 199.57 60.9507C197.837 61.3205 195.225 61.5054 191.735 61.5054H173.327V5.37793ZM187.922 14.981V51.9023C190.025 51.9023 191.319 51.4863 191.805 50.6543C192.29 49.7992 192.533 47.4995 192.533 43.7554V21.9492C192.533 19.4069 192.452 17.7775 192.29 17.061C192.128 16.3446 191.758 15.8245 191.181 15.501C190.603 15.1543 189.517 14.981 187.922 14.981Z"/>
<path d="M245.748 5.37793V42.8887C245.748 47.1413 245.609 50.1343 245.332 51.8677C245.055 53.578 244.234 55.346 242.871 57.1719C241.507 58.9746 239.704 60.3498 237.462 61.2974C235.244 62.2218 232.62 62.6841 229.593 62.6841C226.242 62.6841 223.283 62.1294 220.718 61.02C218.152 59.9106 216.234 58.4661 214.963 56.6865C213.692 54.9069 212.941 53.0348 212.709 51.0703C212.478 49.0827 212.363 44.9225 212.363 38.5898V5.37793H226.958V47.4648C226.958 49.9147 227.085 51.4863 227.339 52.1797C227.617 52.8499 228.16 53.1851 228.969 53.1851C229.893 53.1851 230.483 52.8153 230.737 52.0757C231.014 51.313 231.153 49.5334 231.153 46.7368V5.37793H245.748Z"/>
<path d="M285.478 29.8535H270.882V20.0771C270.882 17.2344 270.721 15.4663 270.397 14.7729C270.097 14.0565 269.415 13.6982 268.352 13.6982C267.15 13.6982 266.387 14.1258 266.063 14.981C265.74 15.8361 265.578 17.6851 265.578 20.5278V46.5981C265.578 49.3254 265.74 51.105 266.063 51.937C266.387 52.769 267.115 53.1851 268.248 53.1851C269.334 53.1851 270.039 52.769 270.362 51.937C270.709 51.105 270.882 49.152 270.882 46.0781V39.0405H285.478V41.2246C285.478 47.0257 285.062 51.1396 284.229 53.5664C283.421 55.9932 281.606 58.1195 278.787 59.9453C275.99 61.7712 272.535 62.6841 268.421 62.6841C264.145 62.6841 260.621 61.9098 257.847 60.3613C255.074 58.8128 253.236 56.675 252.335 53.9478C251.434 51.1974 250.983 47.0719 250.983 41.5713V25.1733C250.983 21.1287 251.122 18.1011 251.399 16.0903C251.676 14.0565 252.497 12.1035 253.86 10.2314C255.247 8.35938 257.154 6.89176 259.581 5.82861C262.03 4.74235 264.839 4.19922 268.005 4.19922C272.304 4.19922 275.851 5.03125 278.648 6.69531C281.444 8.35938 283.282 10.4395 284.16 12.9355C285.038 15.4085 285.478 19.2682 285.478 24.5146V29.8535Z"/>
<path d="M320.111 5.37793V16.6104H311.444V61.5054H296.849V16.6104H288.216V5.37793H320.111Z"/>
<path d="M338.034 5.37793V61.5054H323.439V5.37793H338.034Z"/>
<path d="M377.244 38.2432C377.244 43.8825 377.105 47.8809 376.828 50.2383C376.573 52.5726 375.741 54.7104 374.332 56.6519C372.945 58.5933 371.061 60.084 368.681 61.124C366.3 62.1641 363.527 62.6841 360.36 62.6841C357.356 62.6841 354.652 62.1987 352.248 61.228C349.868 60.2342 347.949 58.755 346.493 56.7905C345.037 54.826 344.17 52.6882 343.893 50.377C343.616 48.0658 343.477 44.0212 343.477 38.2432V28.6401C343.477 23.0008 343.604 19.014 343.858 16.6797C344.136 14.3223 344.968 12.1729 346.354 10.2314C347.764 8.29004 349.66 6.79932 352.04 5.75928C354.421 4.71924 357.194 4.19922 360.36 4.19922C363.365 4.19922 366.057 4.69613 368.438 5.68994C370.842 6.66064 372.771 8.12826 374.228 10.0928C375.684 12.0573 376.55 14.1951 376.828 16.5063C377.105 18.8175 377.244 22.8621 377.244 28.6401V38.2432ZM362.648 19.7998C362.648 17.1882 362.498 15.5241 362.198 14.8076C361.92 14.068 361.331 13.6982 360.43 13.6982C359.667 13.6982 359.078 13.9987 358.662 14.5996C358.269 15.1774 358.072 16.9108 358.072 19.7998V46.0088C358.072 49.2676 358.199 51.2783 358.454 52.041C358.731 52.8037 359.355 53.1851 360.326 53.1851C361.319 53.1851 361.955 52.7459 362.232 51.8677C362.51 50.9894 362.648 48.8978 362.648 45.5928V19.7998Z"/>
<path d="M415.309 5.37793V61.5054H402.517L394.924 35.9897V61.5054H382.721V5.37793H394.924L403.106 30.6509V5.37793H415.309Z"/>
</mask>
<path d="M19.1582 5.37793V61.5054H4.56299V5.37793H19.1582Z" fill="white"/>
<path d="M57.605 5.37793V61.5054H44.8125L37.2202 35.9897V61.5054H25.0171V5.37793H37.2202L45.4019 30.6509V5.37793H57.605Z" fill="white"/>
<path d="M92.897 5.37793V16.6104H84.23V61.5054H69.6348V16.6104H61.0024V5.37793H92.897Z" fill="white"/>
<path d="M96.2251 5.37793H106.556C113.444 5.37793 118.101 5.64372 120.527 6.17529C122.977 6.70687 124.965 8.07048 126.49 10.2661C128.039 12.4386 128.813 15.917 128.813 20.7012C128.813 25.0693 128.27 28.0046 127.184 29.5068C126.097 31.0091 123.959 31.9105 120.77 32.2109C123.659 32.9274 125.6 33.8866 126.594 35.0884C127.588 36.2902 128.201 37.3996 128.432 38.4165C128.686 39.4103 128.813 42.1722 128.813 46.7021V61.5054H115.258V42.854C115.258 39.8494 115.015 37.9889 114.53 37.2725C114.068 36.556 112.831 36.1978 110.82 36.1978V61.5054H96.2251V5.37793ZM110.82 14.981V27.4614C112.461 27.4614 113.605 27.2419 114.252 26.8027C114.923 26.3405 115.258 24.8729 115.258 22.3999V19.3145C115.258 17.5348 114.934 16.3677 114.287 15.813C113.663 15.2583 112.507 14.981 110.82 14.981Z" fill="white"/>
<path d="M167.849 38.2432C167.849 43.8825 167.71 47.8809 167.433 50.2383C167.179 52.5726 166.347 54.7104 164.937 56.6519C163.55 58.5933 161.667 60.084 159.286 61.124C156.906 62.1641 154.132 62.6841 150.966 62.6841C147.961 62.6841 145.257 62.1987 142.854 61.228C140.473 60.2342 138.555 58.755 137.099 56.7905C135.643 54.826 134.776 52.6882 134.499 50.377C134.221 48.0658 134.083 44.0212 134.083 38.2432V28.6401C134.083 23.0008 134.21 19.014 134.464 16.6797C134.741 14.3223 135.573 12.1729 136.96 10.2314C138.37 8.29004 140.265 6.79932 142.646 5.75928C145.026 4.71924 147.799 4.19922 150.966 4.19922C153.97 4.19922 156.663 4.69613 159.043 5.68994C161.447 6.66064 163.377 8.12826 164.833 10.0928C166.289 12.0573 167.156 14.1951 167.433 16.5063C167.71 18.8175 167.849 22.8621 167.849 28.6401V38.2432ZM153.254 19.7998C153.254 17.1882 153.104 15.5241 152.803 14.8076C152.526 14.068 151.937 13.6982 151.035 13.6982C150.272 13.6982 149.683 13.9987 149.267 14.5996C148.874 15.1774 148.678 16.9108 148.678 19.7998V46.0088C148.678 49.2676 148.805 51.2783 149.059 52.041C149.336 52.8037 149.96 53.1851 150.931 53.1851C151.925 53.1851 152.561 52.7459 152.838 51.8677C153.115 50.9894 153.254 48.8978 153.254 45.5928V19.7998Z" fill="white"/>
<path d="M173.327 5.37793H184.247C191.296 5.37793 196.057 5.7015 198.53 6.34863C201.026 6.99577 202.922 8.05892 204.216 9.53809C205.51 11.0173 206.319 12.6698 206.643 14.4956C206.966 16.2983 207.128 19.8576 207.128 25.1733V44.8301C207.128 49.8685 206.885 53.2428 206.4 54.9531C205.938 56.6403 205.117 57.9692 203.938 58.9399C202.76 59.8875 201.304 60.5578 199.57 60.9507C197.837 61.3205 195.225 61.5054 191.735 61.5054H173.327V5.37793ZM187.922 14.981V51.9023C190.025 51.9023 191.319 51.4863 191.805 50.6543C192.29 49.7992 192.533 47.4995 192.533 43.7554V21.9492C192.533 19.4069 192.452 17.7775 192.29 17.061C192.128 16.3446 191.758 15.8245 191.181 15.501C190.603 15.1543 189.517 14.981 187.922 14.981Z" fill="white"/>
<path d="M245.748 5.37793V42.8887C245.748 47.1413 245.609 50.1343 245.332 51.8677C245.055 53.578 244.234 55.346 242.871 57.1719C241.507 58.9746 239.704 60.3498 237.462 61.2974C235.244 62.2218 232.62 62.6841 229.593 62.6841C226.242 62.6841 223.283 62.1294 220.718 61.02C218.152 59.9106 216.234 58.4661 214.963 56.6865C213.692 54.9069 212.941 53.0348 212.709 51.0703C212.478 49.0827 212.363 44.9225 212.363 38.5898V5.37793H226.958V47.4648C226.958 49.9147 227.085 51.4863 227.339 52.1797C227.617 52.8499 228.16 53.1851 228.969 53.1851C229.893 53.1851 230.483 52.8153 230.737 52.0757C231.014 51.313 231.153 49.5334 231.153 46.7368V5.37793H245.748Z" fill="white"/>
<path d="M285.478 29.8535H270.882V20.0771C270.882 17.2344 270.721 15.4663 270.397 14.7729C270.097 14.0565 269.415 13.6982 268.352 13.6982C267.15 13.6982 266.387 14.1258 266.063 14.981C265.74 15.8361 265.578 17.6851 265.578 20.5278V46.5981C265.578 49.3254 265.74 51.105 266.063 51.937C266.387 52.769 267.115 53.1851 268.248 53.1851C269.334 53.1851 270.039 52.769 270.362 51.937C270.709 51.105 270.882 49.152 270.882 46.0781V39.0405H285.478V41.2246C285.478 47.0257 285.062 51.1396 284.229 53.5664C283.421 55.9932 281.606 58.1195 278.787 59.9453C275.99 61.7712 272.535 62.6841 268.421 62.6841C264.145 62.6841 260.621 61.9098 257.847 60.3613C255.074 58.8128 253.236 56.675 252.335 53.9478C251.434 51.1974 250.983 47.0719 250.983 41.5713V25.1733C250.983 21.1287 251.122 18.1011 251.399 16.0903C251.676 14.0565 252.497 12.1035 253.86 10.2314C255.247 8.35938 257.154 6.89176 259.581 5.82861C262.03 4.74235 264.839 4.19922 268.005 4.19922C272.304 4.19922 275.851 5.03125 278.648 6.69531C281.444 8.35938 283.282 10.4395 284.16 12.9355C285.038 15.4085 285.478 19.2682 285.478 24.5146V29.8535Z" fill="white"/>
<path d="M320.111 5.37793V16.6104H311.444V61.5054H296.849V16.6104H288.216V5.37793H320.111Z" fill="white"/>
<path d="M338.034 5.37793V61.5054H323.439V5.37793H338.034Z" fill="white"/>
<path d="M377.244 38.2432C377.244 43.8825 377.105 47.8809 376.828 50.2383C376.573 52.5726 375.741 54.7104 374.332 56.6519C372.945 58.5933 371.061 60.084 368.681 61.124C366.3 62.1641 363.527 62.6841 360.36 62.6841C357.356 62.6841 354.652 62.1987 352.248 61.228C349.868 60.2342 347.949 58.755 346.493 56.7905C345.037 54.826 344.17 52.6882 343.893 50.377C343.616 48.0658 343.477 44.0212 343.477 38.2432V28.6401C343.477 23.0008 343.604 19.014 343.858 16.6797C344.136 14.3223 344.968 12.1729 346.354 10.2314C347.764 8.29004 349.66 6.79932 352.04 5.75928C354.421 4.71924 357.194 4.19922 360.36 4.19922C363.365 4.19922 366.057 4.69613 368.438 5.68994C370.842 6.66064 372.771 8.12826 374.228 10.0928C375.684 12.0573 376.55 14.1951 376.828 16.5063C377.105 18.8175 377.244 22.8621 377.244 28.6401V38.2432ZM362.648 19.7998C362.648 17.1882 362.498 15.5241 362.198 14.8076C361.92 14.068 361.331 13.6982 360.43 13.6982C359.667 13.6982 359.078 13.9987 358.662 14.5996C358.269 15.1774 358.072 16.9108 358.072 19.7998V46.0088C358.072 49.2676 358.199 51.2783 358.454 52.041C358.731 52.8037 359.355 53.1851 360.326 53.1851C361.319 53.1851 361.955 52.7459 362.232 51.8677C362.51 50.9894 362.648 48.8978 362.648 45.5928V19.7998Z" fill="white"/>
<path d="M415.309 5.37793V61.5054H402.517L394.924 35.9897V61.5054H382.721V5.37793H394.924L403.106 30.6509V5.37793H415.309Z" fill="white"/>
<path d="M19.1582 5.37793V61.5054H4.56299V5.37793H19.1582Z" stroke="black" stroke-width="8" mask="url(#path-1-outside-1_1193_58)"/>
<path d="M57.605 5.37793V61.5054H44.8125L37.2202 35.9897V61.5054H25.0171V5.37793H37.2202L45.4019 30.6509V5.37793H57.605Z" stroke="black" stroke-width="8" mask="url(#path-1-outside-1_1193_58)"/>
<path d="M92.897 5.37793V16.6104H84.23V61.5054H69.6348V16.6104H61.0024V5.37793H92.897Z" stroke="black" stroke-width="8" mask="url(#path-1-outside-1_1193_58)"/>
<path d="M96.2251 5.37793H106.556C113.444 5.37793 118.101 5.64372 120.527 6.17529C122.977 6.70687 124.965 8.07048 126.49 10.2661C128.039 12.4386 128.813 15.917 128.813 20.7012C128.813 25.0693 128.27 28.0046 127.184 29.5068C126.097 31.0091 123.959 31.9105 120.77 32.2109C123.659 32.9274 125.6 33.8866 126.594 35.0884C127.588 36.2902 128.201 37.3996 128.432 38.4165C128.686 39.4103 128.813 42.1722 128.813 46.7021V61.5054H115.258V42.854C115.258 39.8494 115.015 37.9889 114.53 37.2725C114.068 36.556 112.831 36.1978 110.82 36.1978V61.5054H96.2251V5.37793ZM110.82 14.981V27.4614C112.461 27.4614 113.605 27.2419 114.252 26.8027C114.923 26.3405 115.258 24.8729 115.258 22.3999V19.3145C115.258 17.5348 114.934 16.3677 114.287 15.813C113.663 15.2583 112.507 14.981 110.82 14.981Z" stroke="black" stroke-width="8" mask="url(#path-1-outside-1_1193_58)"/>
<path d="M167.849 38.2432C167.849 43.8825 167.71 47.8809 167.433 50.2383C167.179 52.5726 166.347 54.7104 164.937 56.6519C163.55 58.5933 161.667 60.084 159.286 61.124C156.906 62.1641 154.132 62.6841 150.966 62.6841C147.961 62.6841 145.257 62.1987 142.854 61.228C140.473 60.2342 138.555 58.755 137.099 56.7905C135.643 54.826 134.776 52.6882 134.499 50.377C134.221 48.0658 134.083 44.0212 134.083 38.2432V28.6401C134.083 23.0008 134.21 19.014 134.464 16.6797C134.741 14.3223 135.573 12.1729 136.96 10.2314C138.37 8.29004 140.265 6.79932 142.646 5.75928C145.026 4.71924 147.799 4.19922 150.966 4.19922C153.97 4.19922 156.663 4.69613 159.043 5.68994C161.447 6.66064 163.377 8.12826 164.833 10.0928C166.289 12.0573 167.156 14.1951 167.433 16.5063C167.71 18.8175 167.849 22.8621 167.849 28.6401V38.2432ZM153.254 19.7998C153.254 17.1882 153.104 15.5241 152.803 14.8076C152.526 14.068 151.937 13.6982 151.035 13.6982C150.272 13.6982 149.683 13.9987 149.267 14.5996C148.874 15.1774 148.678 16.9108 148.678 19.7998V46.0088C148.678 49.2676 148.805 51.2783 149.059 52.041C149.336 52.8037 149.96 53.1851 150.931 53.1851C151.925 53.1851 152.561 52.7459 152.838 51.8677C153.115 50.9894 153.254 48.8978 153.254 45.5928V19.7998Z" stroke="black" stroke-width="8" mask="url(#path-1-outside-1_1193_58)"/>
<path d="M173.327 5.37793H184.247C191.296 5.37793 196.057 5.7015 198.53 6.34863C201.026 6.99577 202.922 8.05892 204.216 9.53809C205.51 11.0173 206.319 12.6698 206.643 14.4956C206.966 16.2983 207.128 19.8576 207.128 25.1733V44.8301C207.128 49.8685 206.885 53.2428 206.4 54.9531C205.938 56.6403 205.117 57.9692 203.938 58.9399C202.76 59.8875 201.304 60.5578 199.57 60.9507C197.837 61.3205 195.225 61.5054 191.735 61.5054H173.327V5.37793ZM187.922 14.981V51.9023C190.025 51.9023 191.319 51.4863 191.805 50.6543C192.29 49.7992 192.533 47.4995 192.533 43.7554V21.9492C192.533 19.4069 192.452 17.7775 192.29 17.061C192.128 16.3446 191.758 15.8245 191.181 15.501C190.603 15.1543 189.517 14.981 187.922 14.981Z" stroke="black" stroke-width="8" mask="url(#path-1-outside-1_1193_58)"/>
<path d="M245.748 5.37793V42.8887C245.748 47.1413 245.609 50.1343 245.332 51.8677C245.055 53.578 244.234 55.346 242.871 57.1719C241.507 58.9746 239.704 60.3498 237.462 61.2974C235.244 62.2218 232.62 62.6841 229.593 62.6841C226.242 62.6841 223.283 62.1294 220.718 61.02C218.152 59.9106 216.234 58.4661 214.963 56.6865C213.692 54.9069 212.941 53.0348 212.709 51.0703C212.478 49.0827 212.363 44.9225 212.363 38.5898V5.37793H226.958V47.4648C226.958 49.9147 227.085 51.4863 227.339 52.1797C227.617 52.8499 228.16 53.1851 228.969 53.1851C229.893 53.1851 230.483 52.8153 230.737 52.0757C231.014 51.313 231.153 49.5334 231.153 46.7368V5.37793H245.748Z" stroke="black" stroke-width="8" mask="url(#path-1-outside-1_1193_58)"/>
<path d="M285.478 29.8535H270.882V20.0771C270.882 17.2344 270.721 15.4663 270.397 14.7729C270.097 14.0565 269.415 13.6982 268.352 13.6982C267.15 13.6982 266.387 14.1258 266.063 14.981C265.74 15.8361 265.578 17.6851 265.578 20.5278V46.5981C265.578 49.3254 265.74 51.105 266.063 51.937C266.387 52.769 267.115 53.1851 268.248 53.1851C269.334 53.1851 270.039 52.769 270.362 51.937C270.709 51.105 270.882 49.152 270.882 46.0781V39.0405H285.478V41.2246C285.478 47.0257 285.062 51.1396 284.229 53.5664C283.421 55.9932 281.606 58.1195 278.787 59.9453C275.99 61.7712 272.535 62.6841 268.421 62.6841C264.145 62.6841 260.621 61.9098 257.847 60.3613C255.074 58.8128 253.236 56.675 252.335 53.9478C251.434 51.1974 250.983 47.0719 250.983 41.5713V25.1733C250.983 21.1287 251.122 18.1011 251.399 16.0903C251.676 14.0565 252.497 12.1035 253.86 10.2314C255.247 8.35938 257.154 6.89176 259.581 5.82861C262.03 4.74235 264.839 4.19922 268.005 4.19922C272.304 4.19922 275.851 5.03125 278.648 6.69531C281.444 8.35938 283.282 10.4395 284.16 12.9355C285.038 15.4085 285.478 19.2682 285.478 24.5146V29.8535Z" stroke="black" stroke-width="8" mask="url(#path-1-outside-1_1193_58)"/>
<path d="M320.111 5.37793V16.6104H311.444V61.5054H296.849V16.6104H288.216V5.37793H320.111Z" stroke="black" stroke-width="8" mask="url(#path-1-outside-1_1193_58)"/>
<path d="M338.034 5.37793V61.5054H323.439V5.37793H338.034Z" stroke="black" stroke-width="8" mask="url(#path-1-outside-1_1193_58)"/>
<path d="M377.244 38.2432C377.244 43.8825 377.105 47.8809 376.828 50.2383C376.573 52.5726 375.741 54.7104 374.332 56.6519C372.945 58.5933 371.061 60.084 368.681 61.124C366.3 62.1641 363.527 62.6841 360.36 62.6841C357.356 62.6841 354.652 62.1987 352.248 61.228C349.868 60.2342 347.949 58.755 346.493 56.7905C345.037 54.826 344.17 52.6882 343.893 50.377C343.616 48.0658 343.477 44.0212 343.477 38.2432V28.6401C343.477 23.0008 343.604 19.014 343.858 16.6797C344.136 14.3223 344.968 12.1729 346.354 10.2314C347.764 8.29004 349.66 6.79932 352.04 5.75928C354.421 4.71924 357.194 4.19922 360.36 4.19922C363.365 4.19922 366.057 4.69613 368.438 5.68994C370.842 6.66064 372.771 8.12826 374.228 10.0928C375.684 12.0573 376.55 14.1951 376.828 16.5063C377.105 18.8175 377.244 22.8621 377.244 28.6401V38.2432ZM362.648 19.7998C362.648 17.1882 362.498 15.5241 362.198 14.8076C361.92 14.068 361.331 13.6982 360.43 13.6982C359.667 13.6982 359.078 13.9987 358.662 14.5996C358.269 15.1774 358.072 16.9108 358.072 19.7998V46.0088C358.072 49.2676 358.199 51.2783 358.454 52.041C358.731 52.8037 359.355 53.1851 360.326 53.1851C361.319 53.1851 361.955 52.7459 362.232 51.8677C362.51 50.9894 362.648 48.8978 362.648 45.5928V19.7998Z" stroke="black" stroke-width="8" mask="url(#path-1-outside-1_1193_58)"/>
<path d="M415.309 5.37793V61.5054H402.517L394.924 35.9897V61.5054H382.721V5.37793H394.924L403.106 30.6509V5.37793H415.309Z" stroke="black" stroke-width="8" mask="url(#path-1-outside-1_1193_58)"/>
</svg>
