<svg width="280" height="67" viewBox="0 0 280 67" fill="none" xmlns="http://www.w3.org/2000/svg">
<mask id="path-1-outside-1_1196_61" maskUnits="userSpaceOnUse" x="0.964844" y="0.376953" width="279" height="67" fill="black">
<rect fill="white" x="0.964844" y="0.376953" width="279" height="67"/>
<path d="M4.96484 5.55566H15.2959C22.1833 5.55566 26.8403 5.82145 29.2671 6.35303C31.717 6.8846 33.7046 8.24821 35.23 10.4438C36.7785 12.6164 37.5527 16.0947 37.5527 20.8789C37.5527 25.2471 37.0096 28.1823 35.9233 29.6846C34.8371 31.1868 32.6992 32.0882 29.5098 32.3887C32.3988 33.1051 34.3402 34.0643 35.334 35.2661C36.3278 36.4679 36.9403 37.5773 37.1714 38.5942C37.4256 39.5881 37.5527 42.3499 37.5527 46.8799V61.6831H23.9976V43.0317C23.9976 40.0272 23.7549 38.1667 23.2695 37.4502C22.8073 36.7337 21.5708 36.3755 19.5601 36.3755V61.6831H4.96484V5.55566ZM19.5601 15.1587V27.6392C21.201 27.6392 22.3451 27.4196 22.9922 26.9805C23.6624 26.5182 23.9976 25.0506 23.9976 22.5776V19.4922C23.9976 17.7126 23.674 16.5454 23.0269 15.9907C22.4028 15.436 21.2472 15.1587 19.5601 15.1587Z"/>
<path d="M76.5889 38.4209C76.5889 44.0602 76.4502 48.0586 76.1729 50.416C75.9186 52.7503 75.0866 54.8882 73.6768 56.8296C72.29 58.771 70.4064 60.2617 68.0259 61.3018C65.6453 62.3418 62.8719 62.8618 59.7056 62.8618C56.701 62.8618 53.9969 62.3765 51.5933 61.4058C49.2127 60.4119 47.2944 58.9328 45.8384 56.9683C44.3823 55.0037 43.5156 52.8659 43.2383 50.5547C42.9609 48.2435 42.8223 44.1989 42.8223 38.4209V28.8179C42.8223 23.1785 42.9494 19.1917 43.2036 16.8574C43.481 14.5 44.313 12.3506 45.6997 10.4092C47.1095 8.46777 49.0047 6.97705 51.3853 5.93701C53.7658 4.89697 56.5392 4.37695 59.7056 4.37695C62.7101 4.37695 65.4027 4.87386 67.7832 5.86768C70.1868 6.83838 72.1167 8.30599 73.5728 10.2705C75.0288 12.235 75.8955 14.3729 76.1729 16.6841C76.4502 18.9953 76.5889 23.0399 76.5889 28.8179V38.4209ZM61.9937 19.9775C61.9937 17.3659 61.8434 15.7018 61.543 14.9854C61.2656 14.2458 60.6763 13.876 59.7749 13.876C59.0122 13.876 58.4229 14.1764 58.0068 14.7773C57.6139 15.3551 57.4175 17.0885 57.4175 19.9775V46.1865C57.4175 49.4453 57.5446 51.4561 57.7988 52.2188C58.0762 52.9814 58.7002 53.3628 59.6709 53.3628C60.6647 53.3628 61.3003 52.9237 61.5776 52.0454C61.855 51.1672 61.9937 49.0755 61.9937 45.7705V19.9775Z"/>
<path d="M107.27 5.55566L115.625 61.6831H100.683L99.9551 51.5947H94.7202L93.8535 61.6831H78.7383L86.1572 5.55566H107.27ZM99.5391 41.645C98.7995 35.2892 98.0599 27.4427 97.3203 18.1055C95.8411 28.8294 94.9167 36.6759 94.5469 41.645H99.5391Z"/>
<path d="M118.121 5.55566H129.042C136.091 5.55566 140.852 5.87923 143.325 6.52637C145.821 7.1735 147.716 8.23665 149.01 9.71582C150.305 11.195 151.113 12.8475 151.437 14.6733C151.761 16.4761 151.922 20.0353 151.922 25.3511V45.0078C151.922 50.0462 151.68 53.4206 151.194 55.1309C150.732 56.818 149.912 58.147 148.733 59.1177C147.554 60.0653 146.098 60.7355 144.365 61.1284C142.631 61.4982 140.02 61.6831 136.53 61.6831H118.121V5.55566ZM132.716 15.1587V52.0801C134.819 52.0801 136.114 51.6641 136.599 50.832C137.084 49.9769 137.327 47.6772 137.327 43.9331V22.127C137.327 19.5846 137.246 17.9552 137.084 17.2388C136.923 16.5223 136.553 16.0023 135.975 15.6787C135.397 15.332 134.311 15.1587 132.716 15.1587Z"/>
<path d="M202.399 5.55566V61.6831H189.641V23.791L184.545 61.6831H175.497L170.123 24.6577V61.6831H157.365V5.55566H176.259C176.814 8.93001 177.403 12.9053 178.027 17.4814L180.038 31.7646L183.366 5.55566H202.399Z"/>
<path d="M233.461 5.55566L241.816 61.6831H226.875L226.146 51.5947H220.912L220.045 61.6831H204.93L212.349 5.55566H233.461ZM225.73 41.645C224.991 35.2892 224.251 27.4427 223.512 18.1055C222.033 28.8294 221.108 36.6759 220.738 41.645H225.73Z"/>
<path d="M244.312 5.55566H259.012C262.987 5.55566 266.038 5.86768 268.164 6.4917C270.313 7.11572 271.92 8.01709 272.983 9.1958C274.069 10.3745 274.797 11.8075 275.167 13.4946C275.56 15.1587 275.756 17.7472 275.756 21.2603V26.1484C275.756 29.7308 275.387 32.3424 274.647 33.9834C273.907 35.6243 272.544 36.884 270.556 37.7622C268.592 38.6405 266.015 39.0796 262.825 39.0796H258.908V61.6831H244.312V5.55566ZM258.908 15.1587V29.4419C259.324 29.465 259.682 29.4766 259.982 29.4766C261.323 29.4766 262.247 29.153 262.756 28.5059C263.287 27.8356 263.553 26.4604 263.553 24.3804V19.7695C263.553 17.8512 263.253 16.6032 262.652 16.0254C262.051 15.4476 260.803 15.1587 258.908 15.1587Z"/>
</mask>
<path d="M4.96484 5.55566H15.2959C22.1833 5.55566 26.8403 5.82145 29.2671 6.35303C31.717 6.8846 33.7046 8.24821 35.23 10.4438C36.7785 12.6164 37.5527 16.0947 37.5527 20.8789C37.5527 25.2471 37.0096 28.1823 35.9233 29.6846C34.8371 31.1868 32.6992 32.0882 29.5098 32.3887C32.3988 33.1051 34.3402 34.0643 35.334 35.2661C36.3278 36.4679 36.9403 37.5773 37.1714 38.5942C37.4256 39.5881 37.5527 42.3499 37.5527 46.8799V61.6831H23.9976V43.0317C23.9976 40.0272 23.7549 38.1667 23.2695 37.4502C22.8073 36.7337 21.5708 36.3755 19.5601 36.3755V61.6831H4.96484V5.55566ZM19.5601 15.1587V27.6392C21.201 27.6392 22.3451 27.4196 22.9922 26.9805C23.6624 26.5182 23.9976 25.0506 23.9976 22.5776V19.4922C23.9976 17.7126 23.674 16.5454 23.0269 15.9907C22.4028 15.436 21.2472 15.1587 19.5601 15.1587Z" fill="white"/>
<path d="M76.5889 38.4209C76.5889 44.0602 76.4502 48.0586 76.1729 50.416C75.9186 52.7503 75.0866 54.8882 73.6768 56.8296C72.29 58.771 70.4064 60.2617 68.0259 61.3018C65.6453 62.3418 62.8719 62.8618 59.7056 62.8618C56.701 62.8618 53.9969 62.3765 51.5933 61.4058C49.2127 60.4119 47.2944 58.9328 45.8384 56.9683C44.3823 55.0037 43.5156 52.8659 43.2383 50.5547C42.9609 48.2435 42.8223 44.1989 42.8223 38.4209V28.8179C42.8223 23.1785 42.9494 19.1917 43.2036 16.8574C43.481 14.5 44.313 12.3506 45.6997 10.4092C47.1095 8.46777 49.0047 6.97705 51.3853 5.93701C53.7658 4.89697 56.5392 4.37695 59.7056 4.37695C62.7101 4.37695 65.4027 4.87386 67.7832 5.86768C70.1868 6.83838 72.1167 8.30599 73.5728 10.2705C75.0288 12.235 75.8955 14.3729 76.1729 16.6841C76.4502 18.9953 76.5889 23.0399 76.5889 28.8179V38.4209ZM61.9937 19.9775C61.9937 17.3659 61.8434 15.7018 61.543 14.9854C61.2656 14.2458 60.6763 13.876 59.7749 13.876C59.0122 13.876 58.4229 14.1764 58.0068 14.7773C57.6139 15.3551 57.4175 17.0885 57.4175 19.9775V46.1865C57.4175 49.4453 57.5446 51.4561 57.7988 52.2188C58.0762 52.9814 58.7002 53.3628 59.6709 53.3628C60.6647 53.3628 61.3003 52.9237 61.5776 52.0454C61.855 51.1672 61.9937 49.0755 61.9937 45.7705V19.9775Z" fill="white"/>
<path d="M107.27 5.55566L115.625 61.6831H100.683L99.9551 51.5947H94.7202L93.8535 61.6831H78.7383L86.1572 5.55566H107.27ZM99.5391 41.645C98.7995 35.2892 98.0599 27.4427 97.3203 18.1055C95.8411 28.8294 94.9167 36.6759 94.5469 41.645H99.5391Z" fill="white"/>
<path d="M118.121 5.55566H129.042C136.091 5.55566 140.852 5.87923 143.325 6.52637C145.821 7.1735 147.716 8.23665 149.01 9.71582C150.305 11.195 151.113 12.8475 151.437 14.6733C151.761 16.4761 151.922 20.0353 151.922 25.3511V45.0078C151.922 50.0462 151.68 53.4206 151.194 55.1309C150.732 56.818 149.912 58.147 148.733 59.1177C147.554 60.0653 146.098 60.7355 144.365 61.1284C142.631 61.4982 140.02 61.6831 136.53 61.6831H118.121V5.55566ZM132.716 15.1587V52.0801C134.819 52.0801 136.114 51.6641 136.599 50.832C137.084 49.9769 137.327 47.6772 137.327 43.9331V22.127C137.327 19.5846 137.246 17.9552 137.084 17.2388C136.923 16.5223 136.553 16.0023 135.975 15.6787C135.397 15.332 134.311 15.1587 132.716 15.1587Z" fill="white"/>
<path d="M202.399 5.55566V61.6831H189.641V23.791L184.545 61.6831H175.497L170.123 24.6577V61.6831H157.365V5.55566H176.259C176.814 8.93001 177.403 12.9053 178.027 17.4814L180.038 31.7646L183.366 5.55566H202.399Z" fill="white"/>
<path d="M233.461 5.55566L241.816 61.6831H226.875L226.146 51.5947H220.912L220.045 61.6831H204.93L212.349 5.55566H233.461ZM225.73 41.645C224.991 35.2892 224.251 27.4427 223.512 18.1055C222.033 28.8294 221.108 36.6759 220.738 41.645H225.73Z" fill="white"/>
<path d="M244.312 5.55566H259.012C262.987 5.55566 266.038 5.86768 268.164 6.4917C270.313 7.11572 271.92 8.01709 272.983 9.1958C274.069 10.3745 274.797 11.8075 275.167 13.4946C275.56 15.1587 275.756 17.7472 275.756 21.2603V26.1484C275.756 29.7308 275.387 32.3424 274.647 33.9834C273.907 35.6243 272.544 36.884 270.556 37.7622C268.592 38.6405 266.015 39.0796 262.825 39.0796H258.908V61.6831H244.312V5.55566ZM258.908 15.1587V29.4419C259.324 29.465 259.682 29.4766 259.982 29.4766C261.323 29.4766 262.247 29.153 262.756 28.5059C263.287 27.8356 263.553 26.4604 263.553 24.3804V19.7695C263.553 17.8512 263.253 16.6032 262.652 16.0254C262.051 15.4476 260.803 15.1587 258.908 15.1587Z" fill="white"/>
<path d="M4.96484 5.55566H15.2959C22.1833 5.55566 26.8403 5.82145 29.2671 6.35303C31.717 6.8846 33.7046 8.24821 35.23 10.4438C36.7785 12.6164 37.5527 16.0947 37.5527 20.8789C37.5527 25.2471 37.0096 28.1823 35.9233 29.6846C34.8371 31.1868 32.6992 32.0882 29.5098 32.3887C32.3988 33.1051 34.3402 34.0643 35.334 35.2661C36.3278 36.4679 36.9403 37.5773 37.1714 38.5942C37.4256 39.5881 37.5527 42.3499 37.5527 46.8799V61.6831H23.9976V43.0317C23.9976 40.0272 23.7549 38.1667 23.2695 37.4502C22.8073 36.7337 21.5708 36.3755 19.5601 36.3755V61.6831H4.96484V5.55566ZM19.5601 15.1587V27.6392C21.201 27.6392 22.3451 27.4196 22.9922 26.9805C23.6624 26.5182 23.9976 25.0506 23.9976 22.5776V19.4922C23.9976 17.7126 23.674 16.5454 23.0269 15.9907C22.4028 15.436 21.2472 15.1587 19.5601 15.1587Z" stroke="black" stroke-width="8" mask="url(#path-1-outside-1_1196_61)"/>
<path d="M76.5889 38.4209C76.5889 44.0602 76.4502 48.0586 76.1729 50.416C75.9186 52.7503 75.0866 54.8882 73.6768 56.8296C72.29 58.771 70.4064 60.2617 68.0259 61.3018C65.6453 62.3418 62.8719 62.8618 59.7056 62.8618C56.701 62.8618 53.9969 62.3765 51.5933 61.4058C49.2127 60.4119 47.2944 58.9328 45.8384 56.9683C44.3823 55.0037 43.5156 52.8659 43.2383 50.5547C42.9609 48.2435 42.8223 44.1989 42.8223 38.4209V28.8179C42.8223 23.1785 42.9494 19.1917 43.2036 16.8574C43.481 14.5 44.313 12.3506 45.6997 10.4092C47.1095 8.46777 49.0047 6.97705 51.3853 5.93701C53.7658 4.89697 56.5392 4.37695 59.7056 4.37695C62.7101 4.37695 65.4027 4.87386 67.7832 5.86768C70.1868 6.83838 72.1167 8.30599 73.5728 10.2705C75.0288 12.235 75.8955 14.3729 76.1729 16.6841C76.4502 18.9953 76.5889 23.0399 76.5889 28.8179V38.4209ZM61.9937 19.9775C61.9937 17.3659 61.8434 15.7018 61.543 14.9854C61.2656 14.2458 60.6763 13.876 59.7749 13.876C59.0122 13.876 58.4229 14.1764 58.0068 14.7773C57.6139 15.3551 57.4175 17.0885 57.4175 19.9775V46.1865C57.4175 49.4453 57.5446 51.4561 57.7988 52.2188C58.0762 52.9814 58.7002 53.3628 59.6709 53.3628C60.6647 53.3628 61.3003 52.9237 61.5776 52.0454C61.855 51.1672 61.9937 49.0755 61.9937 45.7705V19.9775Z" stroke="black" stroke-width="8" mask="url(#path-1-outside-1_1196_61)"/>
<path d="M107.27 5.55566L115.625 61.6831H100.683L99.9551 51.5947H94.7202L93.8535 61.6831H78.7383L86.1572 5.55566H107.27ZM99.5391 41.645C98.7995 35.2892 98.0599 27.4427 97.3203 18.1055C95.8411 28.8294 94.9167 36.6759 94.5469 41.645H99.5391Z" stroke="black" stroke-width="8" mask="url(#path-1-outside-1_1196_61)"/>
<path d="M118.121 5.55566H129.042C136.091 5.55566 140.852 5.87923 143.325 6.52637C145.821 7.1735 147.716 8.23665 149.01 9.71582C150.305 11.195 151.113 12.8475 151.437 14.6733C151.761 16.4761 151.922 20.0353 151.922 25.3511V45.0078C151.922 50.0462 151.68 53.4206 151.194 55.1309C150.732 56.818 149.912 58.147 148.733 59.1177C147.554 60.0653 146.098 60.7355 144.365 61.1284C142.631 61.4982 140.02 61.6831 136.53 61.6831H118.121V5.55566ZM132.716 15.1587V52.0801C134.819 52.0801 136.114 51.6641 136.599 50.832C137.084 49.9769 137.327 47.6772 137.327 43.9331V22.127C137.327 19.5846 137.246 17.9552 137.084 17.2388C136.923 16.5223 136.553 16.0023 135.975 15.6787C135.397 15.332 134.311 15.1587 132.716 15.1587Z" stroke="black" stroke-width="8" mask="url(#path-1-outside-1_1196_61)"/>
<path d="M202.399 5.55566V61.6831H189.641V23.791L184.545 61.6831H175.497L170.123 24.6577V61.6831H157.365V5.55566H176.259C176.814 8.93001 177.403 12.9053 178.027 17.4814L180.038 31.7646L183.366 5.55566H202.399Z" stroke="black" stroke-width="8" mask="url(#path-1-outside-1_1196_61)"/>
<path d="M233.461 5.55566L241.816 61.6831H226.875L226.146 51.5947H220.912L220.045 61.6831H204.93L212.349 5.55566H233.461ZM225.73 41.645C224.991 35.2892 224.251 27.4427 223.512 18.1055C222.033 28.8294 221.108 36.6759 220.738 41.645H225.73Z" stroke="black" stroke-width="8" mask="url(#path-1-outside-1_1196_61)"/>
<path d="M244.312 5.55566H259.012C262.987 5.55566 266.038 5.86768 268.164 6.4917C270.313 7.11572 271.92 8.01709 272.983 9.1958C274.069 10.3745 274.797 11.8075 275.167 13.4946C275.56 15.1587 275.756 17.7472 275.756 21.2603V26.1484C275.756 29.7308 275.387 32.3424 274.647 33.9834C273.907 35.6243 272.544 36.884 270.556 37.7622C268.592 38.6405 266.015 39.0796 262.825 39.0796H258.908V61.6831H244.312V5.55566ZM258.908 15.1587V29.4419C259.324 29.465 259.682 29.4766 259.982 29.4766C261.323 29.4766 262.247 29.153 262.756 28.5059C263.287 27.8356 263.553 26.4604 263.553 24.3804V19.7695C263.553 17.8512 263.253 16.6032 262.652 16.0254C262.051 15.4476 260.803 15.1587 258.908 15.1587Z" stroke="black" stroke-width="8" mask="url(#path-1-outside-1_1196_61)"/>
</svg>
