<svg width="4081" height="400" viewBox="0 0 4081 400" fill="none" xmlns="http://www.w3.org/2000/svg">
<g clip-path="url(#clip0_1111_60)">
<path opacity="0.2" d="M4080.37 79.3V0H1179.77V79.3C1179.77 79.3 1874.67 516.7 2651.07 354.9C3427.47 193.1 3576.07 -152.5 4080.37 79.3Z" fill="black"/>
<path opacity="0.2" d="M2249.37 79.3V0H0.374023V79.3C0.374023 79.3 43.674 516.7 820.174 354.9C1596.67 193.1 1745.07 -152.5 2249.37 79.3Z" fill="black"/>
<path opacity="0.2" d="M2631.97 49.8C2631.97 49.8 2035.67 597.1 1163.17 280C290.674 -37.1 0.374023 95.6 0.374023 95.6V0H2631.97V49.8Z" fill="black"/>
<path opacity="0.2" d="M4080.37 95.6C4080.37 95.6 3651.97 597.1 2871.47 280C2090.97 -37.1 1831.37 95.6 1831.37 95.6V0H4080.37V95.6Z" fill="black"/>
<path d="M4080.37 0V192.6C3687.97 369.6 3377.17 288.2 3005.37 158.5C2790.77 83.7 2497.37 32.5 2166.27 164.6C2017.07 224.1 1719.07 368 1140.07 175.4C313.574 -99.5 0.374023 95.6 0.374023 95.6V0H2249.37H4080.37Z" fill="black"/>
</g>
<defs>
<clipPath id="clip0_1111_60">
<rect width="4080" height="400" fill="white" transform="translate(0.374023)"/>
</clipPath>
</defs>
</svg>
